<?xml version="1.0" encoding="UTF-8"?>
<svg id="Layer_1" data-name="Layer 1" xmlns="http://www.w3.org/2000/svg" viewBox="0 0 1280.57 759.86">
  <defs>
    <style>
      .cls-1, .cls-2 {
        fill: none;
        stroke: #303030;
        stroke-linecap: round;
        stroke-miterlimit: 10;
        stroke-width: 10px;
      }

      .cls-3 {
        fill: #303030;
        stroke-width: 0px;
      }

      .cls-2 {
        stroke-dasharray: 0 0 29.39 29.39;
      }
    </style>
  </defs>
  <g>
    <path class="cls-1" d="M1259.36,50.14s-3.74,4.18-10.42,10.78"/>
    <path class="cls-2" d="M1227.34,80.85c-40.89,35.22-113.84,84.64-176.26,56.08-83.23-38.08-194.41-6.4-298.93,168.99-193.24,324.26-468.38,105.84-646.69,347.43"/>
    <path class="cls-1" d="M96.95,665.34c-2.77,4.06-5.52,8.24-8.24,12.54"/>
  </g>
  <path class="cls-3" d="M56.15,706.28l48.28-7.8c4.27-.69,6.19-5.74,3.46-9.09l-30.89-37.92c-2.73-3.35-8.07-2.49-9.6,1.55l-17.39,45.71c-1.54,4.04,1.88,8.23,6.15,7.54Z"/>
</svg>