<?xml version="1.0" encoding="UTF-8"?>
<svg id="Layer_1" data-name="Layer 1" xmlns="http://www.w3.org/2000/svg" viewBox="0 0 1133.33 596.8">
  <defs>
    <style>
      .cls-1, .cls-2 {
        fill: none;
        stroke: #303030;
        stroke-linecap: round;
        stroke-miterlimit: 10;
        stroke-width: 10px;
      }

      .cls-3 {
        fill: #303030;
        stroke-width: 0px;
      }

      .cls-2 {
        stroke-dasharray: 0 0 29.57 29.57;
      }
    </style>
  </defs>
  <g>
    <path class="cls-1" d="M77.11,499.17c1.75-4.76,3.55-9.43,5.38-14"/>
    <path class="cls-2" d="M94.33,458.07c119.18-250.93,373.05-186.76,470.93-150.5,33.1,12.26,67.71,19.46,102.75,23.68,261.28,31.48,363.97-97.26,396.42-155.17"/>
    <path class="cls-1" d="M1071.25,162.97c4.13-8.63,5.86-13.8,5.86-13.8"/>
  </g>
  <path class="cls-3" d="M59.29,525.05l-3.72-48.77c-.33-4.31,4.13-7.36,8.03-5.49l44.09,21.16c3.9,1.87,4.31,7.26.74,9.7l-40.37,27.6c-3.57,2.44-8.44.1-8.77-4.21Z"/>
</svg>