<?xml version="1.0" encoding="UTF-8"?>
<svg id="Layer_4" xmlns="http://www.w3.org/2000/svg" xmlns:xlink="http://www.w3.org/1999/xlink" viewBox="0 0 300 9">
  <defs>
    <style>
      .cls-1 {
        fill: #fff;
        filter: url(#drop-shadow-2);
      }
    </style>
    <filter id="drop-shadow-2" filterUnits="userSpaceOnUse">
      <feOffset dx="0" dy="1"/>
      <feGaussianBlur result="blur" stdDeviation=".5"/>
      <feFlood flood-color="#000" flood-opacity=".08"/>
      <feComposite in2="blur" operator="in"/>
      <feComposite in="SourceGraphic"/>
    </filter>
  </defs>
  <polygon class="cls-1" points="240.01 2.12 216.65 2.12 121.51 2.12 103.51 2.12 -14.99 2.12 -14.99 5.31 -12.3 6.86 -9.47 5.22 -6.64 6.86 -3.81 5.22 -.98 6.86 1.85 5.22 4.68 6.86 7.51 5.22 10.34 6.86 13.17 5.22 16 6.86 18.83 5.22 22.1 7.12 25.37 5.22 28.2 6.86 31.03 5.22 33.86 6.86 36.69 5.22 39.52 6.86 42.36 5.22 45.19 6.86 48.02 5.22 50.85 6.86 53.68 5.22 56.51 6.86 59.34 5.22 62.05 6.79 64.76 5.22 67.59 6.86 70.42 5.22 73.25 6.86 76.08 5.22 78.91 6.86 81.74 5.22 84.57 6.86 87.4 5.22 90.23 6.86 93.06 5.22 95.89 6.86 98.72 5.22 101.17 6.64 103.51 5.29 103.51 5.31 106.2 6.86 106.33 6.79 106.45 6.86 109.16 5.3 111.86 6.86 111.99 6.79 112.11 6.86 114.82 5.3 117.52 6.86 117.65 6.79 117.78 6.86 120.48 5.3 123.18 6.86 126.01 5.22 128.84 6.86 131.67 5.22 134.5 6.86 137.33 5.22 140.6 7.12 143.87 5.22 146.7 6.86 149.53 5.22 152.36 6.86 155.19 5.22 158.02 6.86 160.86 5.22 163.69 6.86 166.52 5.22 169.35 6.86 172.18 5.22 175.01 6.86 177.84 5.22 180.55 6.79 183.26 5.22 186.09 6.86 188.92 5.22 191.75 6.86 194.58 5.22 197.41 6.86 200.24 5.22 203.07 6.86 205.9 5.22 208.73 6.86 211.56 5.22 214.39 6.86 216.87 5.43 219.34 6.86 222.15 5.24 224.95 6.86 224.98 6.85 225 6.86 227.81 5.24 230.61 6.86 230.64 6.85 230.66 6.86 233.47 5.24 236.28 6.86 236.3 6.85 236.32 6.86 239.13 5.24 240.01 5.75 240.01 5.72 241.99 6.86 244.82 5.22 247.65 6.86 250.48 5.22 253.75 7.12 257.02 5.22 259.85 6.86 262.68 5.22 265.51 6.86 268.34 5.22 271.17 6.86 274 5.22 276.83 6.86 279.66 5.22 282.49 6.86 285.32 5.22 288.15 6.86 290.98 5.22 293.69 6.79 296.4 5.22 299.23 6.86 302.06 5.22 304.89 6.86 307.72 5.22 310.55 6.86 313.38 5.22 316.21 6.86 319.04 5.22 321.87 6.86 324.7 5.22 327.53 6.86 330.37 5.22 332.82 6.64 335.27 5.22 338.1 6.86 340.93 5.22 343.76 6.86 346.59 5.22 349.42 6.86 352.25 5.22 353.15 5.75 353.15 2.12 240.01 2.12"/>
</svg>